<?xml version="1.0" standalone="no"?>
<!DOCTYPE svg PUBLIC "-//W3C//DTD SVG 20010904//EN"
 "http://www.w3.org/TR/2001/REC-SVG-20010904/DTD/svg10.dtd">
<svg version="1.0" xmlns="http://www.w3.org/2000/svg"
 width="100.000000pt" height="100.000000pt" viewBox="0 0 100.000000 100.000000"
 preserveAspectRatio="xMidYMid meet">
<metadata>
Created by potrace 1.14, written by Peter Selinger 2001-2017
</metadata>
<g transform="translate(0.000000,100.000000) scale(0.100000,-0.100000)"
fill="#000000" stroke="none">
<path d="M295 898 c-32 -18 -44 -40 -45 -80 l0 -38 -45 0 c-35 0 -52 -6 -70
-25 -23 -23 -25 -31 -25 -131 0 -105 0 -106 30 -134 29 -27 30 -30 30 -124 0
-90 2 -99 25 -121 13 -14 35 -25 49 -25 16 0 27 -7 31 -20 8 -27 40 -42 88
-44 31 -2 41 -7 43 -20 4 -31 22 -40 80 -43 69 -2 101 9 106 38 2 19 10 23 44
25 49 2 81 17 89 44 4 12 15 20 30 20 12 0 33 9 46 19 22 18 24 28 27 122 4
99 5 104 33 130 28 27 29 29 29 133 0 100 -2 108 -25 131 -18 19 -35 25 -70
25 l-45 0 0 38 c-1 40 -13 63 -45 79 -28 15 -169 10 -189 -6 -13 -11 -19 -11
-32 0 -20 16 -162 22 -189 7z m163 -32 c24 -8 24 -10 25 -130 0 -77 -13 -96
-65 -96 -19 0 -28 -5 -28 -16 0 -12 10 -15 47 -13 l48 3 0 -94 c0 -107 -9
-139 -39 -142 -12 0 -28 -1 -36 -2 -8 -1 -16 -9 -18 -18 -3 -15 3 -17 38 -14
22 2 47 10 55 16 11 9 18 10 29 1 7 -6 32 -14 55 -17 33 -5 41 -3 41 10 0 9
-4 17 -10 17 -13 2 -20 3 -52 12 -31 8 -30 2 -32 143 l-1 91 48 -5 c39 -4 47
-2 47 12 0 11 -9 16 -28 16 -53 0 -64 18 -66 106 -1 43 2 89 8 102 10 24 12
25 106 24 49 0 67 -4 77 -18 17 -23 17 -69 -1 -83 -8 -6 -16 -27 -18 -46 -3
-28 -1 -35 13 -35 12 0 19 9 21 28 3 25 7 27 54 30 76 4 84 -8 84 -123 0 -114
-7 -125 -86 -125 -40 0 -54 -4 -54 -14 0 -10 13 -16 37 -18 l38 -3 1 -85 c2
-112 -9 -132 -74 -128 -45 3 -47 4 -50 35 -2 23 -7 30 -18 26 -32 -12 -9 -93
28 -93 17 0 18 -2 8 -15 -9 -11 -32 -15 -79 -15 -69 0 -91 10 -91 42 0 12 -7
18 -21 18 -11 0 -18 -4 -15 -8 3 -5 -2 -18 -10 -30 -13 -19 -25 -22 -83 -22
-49 0 -72 4 -81 15 -10 13 -9 15 8 15 37 0 60 81 28 93 -11 4 -16 -3 -18 -26
-3 -30 -5 -32 -50 -35 -65 -4 -75 13 -74 126 l1 87 38 3 c24 2 37 8 37 18 0
10 -14 14 -54 14 -78 0 -86 11 -86 124 0 114 11 129 86 124 45 -3 49 -5 52
-30 2 -19 9 -28 21 -28 22 0 20 53 -3 79 -28 31 -15 92 22 102 21 7 116 3 140
-5z"/>
</g>
</svg>
